<svg width="31" height="31" viewBox="0 0 31 31" fill="none" xmlns="http://www.w3.org/2000/svg">
<path d="M0.599121 16.0848C0.599121 16.0848 0.599121 15.8898 0.599121 15.4998C0.599121 15.1098 0.809121 14.8098 1.22912 14.5998H14.6841V7.84981L14.7291 1.09981C15.0291 0.709808 15.3141 0.514809 15.5841 0.514809C15.9741 0.514809 16.2741 0.739809 16.4841 1.18981V14.5998H29.8941C30.3441 14.8398 30.5691 15.1398 30.5691 15.4998C30.5691 15.8598 30.3441 16.1598 29.8941 16.3998H16.4841V29.8098C16.2441 30.2298 15.9741 30.4398 15.6741 30.4398H15.5841H15.4941C15.1341 30.4398 14.8641 30.2298 14.6841 29.8098V16.3998H1.22912C0.809121 16.1898 0.599121 15.8898 0.599121 15.4998V16.0848Z" fill="black"/>
</svg>
